<svg xmlns="http://www.w3.org/2000/svg" class="svg-icon block width-full height-full" x="0px" y="0px" width="166" height="39" viewBox="0 0 166 39">
  <path fill="#FC69C3" d="M149.4.7C142 .4 133.8.5 126.7.5s-13.4-.1-22.3.3c-9 .4-16.1 6.1-16.5 18.6-.1 4.6.8 8.6 2.7 11.7-1.4 1.8-3.4 4.7-3.8 5.4-.4.7.2.7.7.6.4-.1 3.9-1.6 6.1-2.5 2.8 2.4 6.5 3.8 10.9 3.9 5.6.2 13.4.1 21.6.1s15.5.2 23.9-.1c7.5-.3 15.2-7.3 15.2-18.3C165.1 7.4 157 1 149.4.7zm-28.1 27.8c0 .9-.5 1.9-1.4 2.2-.7.2-2.1.2-2.7 0-.6-.3-1.4-.6-1.5-2-.1-.9-.3-6.4-.4-8.5-.2-2.1-3-1.8-3.2-.2-.1.9-.1 7.4-.2 8.5-.1 1.1-.1 1.6-.9 2.1-.9.6-3.1.8-4.1.1-.8-.6-.9-1.6-1-2.4-.1-1.3 0-7.2-.2-8.2-.2-1.7-3-1.8-3.2.1-.1 1.1-.2 7.5-.3 8.2-.2 1.5-.5 2-1.2 2.4-.8.5-3.1.5-3.7-.1-.6-.6-.8-1-.9-2.4-.1-1.1 0-5 0-6.1s0-5.6.3-7c.3-1.6 1.7-2.2 2.7-2.2 1.5-.1 1.9.5 2.2 1.2.1.2.2.1.3 0 .6-.7 2.3-1.3 3.9-1.3 2.9 0 3.5 1.6 3.8 1.8.2.2.3.2.6 0 .6-.5 1.6-2.1 5.6-2 3.2.1 4.7 2 5 5 .5 3.2.6 7.9.5 10.8zm7.9.5c-.1 1.1-.6 1.6-1.2 1.8-.7.3-2 .3-2.8.1-.6-.1-1.1-.4-1.2-1.7-.1-1.4-.3-12.3-.2-13 .1-1 .8-1.8 1.7-2 .7-.1 1.7-.1 2.5.1s1 1.2 1.1 2.3c.1 1.1.2 11 .1 12.4zm-2.5-17.1c-1.8.1-3-1.3-3-3s1-3 2.8-3c1.8 0 3 1.4 3 3.1s-.9 2.8-2.8 2.9zm20.2 16.4c-.1 1.2-.4 1.9-1.1 2.3-.7.3-1.8.6-2.7.4-.9-.2-1.7-.4-2-2.3-.2-1.5.1-7.8-.4-9.1-.7-1.8-3.5-1-3.8.1-.3 1.5.1 7.5-.2 9.4-.1.8-.6 1.4-1.2 1.6s-1.5.3-2.3.1c-.7-.2-1.3-.2-1.6-2-.1-.9-.6-12.5 0-14.2.6-1.8 3.3-1.6 4.3-.2 1.2-.9 2.9-1.5 5.4-1.3 3.3.2 5.1 2.5 5.3 5.4.3 2.4.4 8.4.3 9.8zm5.2-22.4c1.8 0 3 1.4 3 3.1s-.9 2.8-2.8 2.9c-1.8.1-3-1.3-3-3s1-2.9 2.8-3zm3 22.4c-.2 1.1-.5 1.8-1.2 2.3-.6.5-2.2.4-2.8.2-.7-.2-1.1-1-1.3-2.1-.2-1.3-.3-11.7-.1-12.4.1-1 .8-1.9 1.7-2.1.7-.1 1.7-.2 2.5.2.9.4 1 1.1 1.1 2.4.1.9.4 9.9.1 11.5z"></path>
  <path fill="#72BE44" d="M82.7 19.9c-.1-4.7.1-13.7-.1-16.7-.1-.9-.6-1.5-1.9-1.5h-6.9c-1.1 0-6.5.1-7.1.1-1 0-1.9.4-2.1 1.6-.2 1.2-.1 11.5 0 15.6.1 3.8 0 14.8.3 17.4.1.9.6 1.7 1.8 1.9.9.1 5.6.1 7.2 0 1.3 0 5.4 0 6.7-.1 1.6-.1 2.3-.5 2.3-2.7-.1-2.1-.1-11.4-.2-15.6zm-6.8 10.6c0 .2 0 .2-.2.2-.5.1-3.6.2-4 .1-.1 0-.2 0-.2-.2-.1-.7-.2-5.5-.2-9.3 0-4.5-.2-8.8-.2-9 0-.3 0-.4.3-.4.4 0 3.5-.2 3.8-.2s.4 0 .4.3c.1.5.2 5 .3 9.4v9.1z"></path>
  <path fill="#FAA61A" d="M43.4 3.5c.1-.7.3-1.4 1.7-1.4.7 0 12.2-.2 12.6-.2.6.1 1 .3 1 1 0 .5.2 5.3.1 6.2-.1.5 0 .7-.4.7-1.1.1-7.1.1-7.6.1-.2 0-.3 0-.3.3 0 .5.1 8.6.1 9.7v11.5c0 .3 0 .5.3.5.4 0 4.3-.2 5-.2.2 0 .3-.1.3-.5 0-1-.1-5.2-.1-6.5 0-.2 0-.4-.2-.4h-1.8c-.5 0-.7-.1-.8-.7-.1-.7-.1-4.4-.1-5.3 0-.8.4-.8.8-.8s5.7-.1 6-.1c.5 0 1 .2 1 .7 0 .8 0 9.3.1 10.1 0 .8.1 7.4.1 8.4 0 1.1-.5 1.4-1.1 1.4s-6 .1-7.2.1c-1.4 0-6.4.1-7.3.1-.8 0-1.5-.4-1.7-1.4-.1-.5-.3-11.6-.3-16-.1-6.1-.3-16.6-.2-17.3z"></path>
  <path fill="#51BEB5" d="M40.6 37.9c0-.4-1.2-15.8-1.4-17.5C39 18.1 37.6 4 37.1 2.1c-.2-.7-.6-.8-1.4-.9H25.6c-1.2 0-1.5.4-1.7 1.3-.5 2.7-1.5 11.8-1.9 15.9-.4 4.4-1.5 18.3-1.5 18.9 0 .4.1.4.5.5.9.1 6 .2 6.4.2.6 0 .6-.4.6-.7.1-.9 0-4.1.1-4.6 0-.2.1-.3.4-.3h4c.4.1.4.3.4.5V38c0 .4.3.7.9.7.6 0 5.9.1 6.6 0 .4-.1.2-.3.2-.8zm-7.9-12.7c0 .3 0 .7-.4.7-.5.1-2 .1-2.6.1-.3 0-.5.1-.5-.4-.2-1.4-.1-10.5 0-11.4 0-.3 0-.4.3-.4s2.4-.1 2.7-.1c.3 0 .4 0 .4.4 0 1.9.1 9.6.1 11.1z"></path>
  <path fill="#FC7A38" d="M15.2 1c1.3.1 2.5.9 2.6 2.1.1 1 .1 7.4.1 7.9-.1.5-.2.7-1 .7-.7 0-4.8 0-5.3-.1-.6-.1-.8-.3-.8-1.1 0-.5.1-1.5.1-1.8 0-.4-.1-.9-.8-1.1-.5-.2-.8-.1-1.3 0S8 8.2 8 8.7c-.1.6 0 3 .2 3.6.2.6.4 1 1 1.4.8.7 5.8 4.1 6.6 4.9.9.8 2.3 2.8 2.4 5.1v5.4c0 2.3-.1 4.5-.2 5.2-.4 3.1-2.1 3.7-4.2 3.8-.9 0-7.8 0-8.8-.1-2.1 0-3.3-1-3.6-3.7-.1-1.4-.3-5.5-.2-6.1.1-.6.3-.8 1-.9.7 0 4.9 0 5.6.1.4.1.7.2.7.6.1.7 0 1.6.1 2.2s.4 1 .7 1.1c.4.2 1.1.2 1.4.1.4-.1.6-.3.7-.9.2-1.3.4-4.3-.8-6.3-.6-1.2-5.7-4-6.6-4.6-1.6-1.1-2.7-2.5-2.9-4.4-.3-1.9-.2-10.7 0-12 .2-1 1.1-2 2.6-2.2 2-.3 9.5-.2 11.5 0z"></path>
</svg>
